<svg width="541" height="282" viewBox="0 0 541 282" fill="none" xmlns="http://www.w3.org/2000/svg">
<g clip-path="url(#clip0_3379_1018)">
<path d="M324.71 57.4618C324.054 56.5269 323.32 55.4819 322.51 54.3218C322.404 54.1702 322.17 54.2013 322.103 54.3737C321.475 55.9879 320.506 57.6414 319.106 59.7302C319.054 59.8079 319.054 59.91 319.107 59.9867C319.332 60.3097 319.556 60.6221 319.763 60.9242C324.609 67.8154 325.139 68.6592 325.139 71.1974C325.139 75.4835 321.647 78.9727 317.357 78.9727C315.279 78.9727 313.321 78.1623 311.854 76.6957C310.386 75.229 309.575 73.2735 309.575 71.1974C309.575 68.7974 310.057 67.9022 314.201 61.993C314.256 61.9156 314.258 61.81 314.205 61.7319L310.852 56.8027C310.763 56.6713 310.569 56.6698 310.478 56.7999C310.321 57.0241 310.165 57.2464 310.017 57.4618C304.916 64.7214 303.549 66.6702 303.549 71.1974C303.549 74.8808 304.983 78.3499 307.597 80.955C310.205 83.5601 313.677 85 317.363 85C324.978 85 331.178 78.8052 331.178 71.1974C331.178 66.6702 329.811 64.7214 324.71 57.4618Z" fill="#8DA9F8"/>
<path d="M304.816 60.2697C304.868 60.1921 304.868 60.0902 304.814 60.0136C304.589 59.6905 304.366 59.3779 304.158 59.0759C299.312 52.1846 298.783 51.3408 298.783 48.8026C298.783 44.5165 302.275 41.0273 306.565 41.0273C308.643 41.0273 310.6 41.8377 312.068 43.3043C313.536 44.771 314.347 46.7265 314.347 48.8026C314.347 50.5291 314.1 51.4775 312.413 54.0788C312.363 54.1557 312.363 54.2565 312.415 54.3324L315.794 59.3016C315.885 59.4343 316.08 59.4343 316.171 59.3021C316.237 59.206 316.303 59.1115 316.365 59.0223L316.793 58.3794C318.161 56.3435 318.972 54.9304 319.488 53.6847C319.515 53.6178 319.542 53.5508 319.569 53.4905C319.615 53.37 319.662 53.2427 319.709 53.1222C320.192 51.7694 320.373 50.4635 320.373 48.8093C320.373 45.1259 318.938 41.6569 316.324 39.0517C313.724 36.4332 310.258 35 306.565 35C298.95 35 292.75 41.1948 292.75 48.8026C292.75 53.3298 294.117 55.2786 299.218 62.5382C299.875 63.4731 300.608 64.5181 301.418 65.6782C301.524 65.8298 301.758 65.7987 301.826 65.6263C302.453 64.0121 303.422 62.3585 304.816 60.2697Z" fill="#00CCA4"/>
<path d="M306.619 77.3988C306.619 73.3203 307.745 71.3179 311.693 65.6522C312.47 64.4736 313.516 62.9667 314.95 60.9241C315.694 59.866 316.526 58.6806 317.457 57.3412L312.504 53.8989C311.579 55.2316 310.748 56.4103 310.01 57.4618C304.909 64.7213 303.542 66.6702 303.542 71.1974C303.542 74.5392 304.735 77.7002 306.9 80.2049C306.719 79.2941 306.619 78.3498 306.619 77.3988Z" fill="#00CCA4"/>
<ellipse cx="306.585" cy="48.8232" rx="3.29413" ry="3.29122" fill="#41DCCC"/>
<ellipse cx="317.127" cy="71.2033" rx="3.29413" ry="3.29122" fill="#8DA9F8"/>
<path d="M351.104 41.6484C349.621 41.6484 348.278 41.9981 347.078 42.7004C345.877 43.3872 344.926 44.3908 344.227 45.7042C343.525 47.0061 343.178 48.5654 343.178 50.3743C343.178 52.1989 343.516 53.7661 344.201 55.068L344.202 55.069C344.885 56.3508 345.829 57.3298 347.031 57.9997C348.23 58.6679 349.581 59 351.079 59C352.218 59 353.252 58.813 354.179 58.4352L354.181 58.4345C355.116 58.0438 355.873 57.5641 356.445 56.9914L356.503 56.9336L356.503 49.4515L350.406 49.4515L350.406 52.2223L353.507 52.2223L353.507 55.4591C353.275 55.6447 352.982 55.7969 352.623 55.9124C352.225 56.0232 351.803 56.0791 351.354 56.0791C349.766 56.0791 348.586 55.5713 347.781 54.5773C346.968 53.5562 346.549 52.1379 346.549 50.2992C346.549 48.496 346.983 47.1041 347.828 46.0997C348.69 45.0791 349.809 44.5693 351.204 44.5693C351.948 44.5693 352.545 44.707 353.007 44.969L353.014 44.9725C353.514 45.2306 353.965 45.553 354.368 45.9399L354.522 46.0872L356.32 43.9113L356.197 43.7843C355.663 43.2325 354.978 42.7456 354.147 42.3214C353.311 41.8692 352.294 41.6484 351.104 41.6484Z" fill="white"/>
<path d="M371.591 41.6484C370.498 41.6484 369.517 41.862 368.652 42.2941C367.807 42.7081 367.13 43.2798 366.626 44.0096L366.626 44.0104C366.135 44.7284 365.891 45.5429 365.891 46.4477C365.891 47.274 366.055 47.9924 366.391 48.5949L366.394 48.5986C366.74 49.1872 367.174 49.6747 367.697 50.0583L367.7 50.0601C368.227 50.434 368.764 50.741 369.311 50.9803L369.311 50.9806L371.562 51.9561C372.29 52.2703 372.88 52.5739 373.335 52.8663L373.337 52.8679C373.75 53.1243 373.969 53.5444 373.969 54.1757C373.969 54.7509 373.754 55.2018 373.319 55.5467C372.884 55.8914 372.227 56.0791 371.316 56.0791C370.596 56.0791 369.873 55.9195 369.147 55.5967C368.415 55.2553 367.767 54.8171 367.199 54.2822L367.049 54.1405L365.093 56.4132L365.225 56.5427C366.027 57.3276 366.949 57.9336 367.989 58.36L367.99 58.3605C369.047 58.7866 370.14 59 371.266 59C372.522 59 373.604 58.7794 374.505 58.3289L374.506 58.3283C375.417 57.8644 376.121 57.25 376.609 56.4826C377.097 55.7168 377.34 54.8712 377.34 53.9507C377.34 52.7332 377.023 51.7547 376.363 51.0414C375.725 50.3343 374.909 49.7689 373.92 49.3426L371.692 48.4162L371.69 48.4157C371.244 48.2337 370.822 48.0519 370.426 47.8702C370.046 47.6799 369.743 47.4616 369.513 47.2177C369.315 46.9752 369.212 46.6727 369.212 46.2976C369.212 45.7577 369.418 45.3522 369.83 45.0578L369.831 45.057C370.272 44.7374 370.853 44.5693 371.591 44.5693C372.267 44.5693 372.873 44.69 373.412 44.9277L373.414 44.9285C373.978 45.1705 374.512 45.5018 375.015 45.9237L375.17 46.0538L376.882 43.9068L376.757 43.7821C376.105 43.1293 375.324 42.6153 374.419 42.2393C373.511 41.8457 372.568 41.6484 371.591 41.6484Z" fill="white"/>
<path d="M386.495 41.6484C385.093 41.6484 383.808 41.9992 382.642 42.7016C381.474 43.3889 380.541 44.3925 379.843 45.7046L379.842 45.7055C379.157 47.0071 378.819 48.5659 378.819 50.3742C378.819 52.1982 379.149 53.7648 379.816 55.0662L379.818 55.069C380.5 56.3486 381.417 57.3274 382.569 57.9978C383.718 58.6667 384.995 59 386.395 59C387.471 59 388.45 58.7949 389.33 58.381L389.331 58.3803C390.224 57.9512 391.012 57.3423 391.696 56.5562L391.807 56.4282L390.003 54.3041L389.852 54.4662C389.399 54.9517 388.898 55.3468 388.351 55.6529C387.817 55.9353 387.2 56.0791 386.495 56.0791C385.187 56.0791 384.153 55.5807 383.375 54.5803C382.593 53.5589 382.19 52.1394 382.19 50.2992C382.19 49.0858 382.379 48.0556 382.749 47.203C383.136 46.3472 383.657 45.7031 384.305 45.2602L384.306 45.2596C384.972 44.7998 385.724 44.5693 386.57 44.5693C387.175 44.5693 387.709 44.6966 388.177 44.9464L388.184 44.9498C388.679 45.1892 389.127 45.5168 389.529 45.9343L389.682 46.0939L391.485 43.9134L391.365 43.7865C390.831 43.2173 390.153 42.7211 389.337 42.296C388.505 41.8625 387.555 41.6484 386.495 41.6484Z" fill="white"/>
<path d="M362.779 41.9486L359.483 41.9486L359.483 58.6999L362.779 58.6999L362.779 41.9486Z" fill="white"/>
<path fill-rule="evenodd" clip-rule="evenodd" d="M400.773 41.9486L397.085 41.9486L391.629 58.6999L395.001 58.6999L396.276 54.2732L401.481 54.2732L402.757 58.6999L406.229 58.6999L400.773 41.9486ZM398.319 47.1988C398.518 46.47 398.706 45.7411 398.884 45.0122C399.069 45.7268 399.253 46.4466 399.438 47.1717L399.439 47.1749C399.689 48.0933 399.948 48.9868 400.215 49.8553L400.216 49.8571L400.717 51.6024L397.065 51.6024L397.567 49.8571L397.567 49.8553C397.835 48.9864 398.085 48.1009 398.319 47.1988Z" fill="white"/>
<path fill-rule="evenodd" clip-rule="evenodd" d="M413.25 41.9486L407.525 41.9486L407.525 58.6999L410.821 58.6999L410.821 52.2974L413.008 52.2974L416.535 58.6999L420.243 58.6999L416.289 51.7807C417.203 51.4302 417.945 50.8852 418.508 50.1448C419.142 49.3344 419.45 48.2793 419.45 46.9979C419.45 45.7549 419.178 44.7496 418.611 44.0042C418.067 43.2515 417.315 42.7203 416.363 42.4087C415.439 42.1008 414.401 41.9486 413.25 41.9486ZM410.821 49.6016L410.821 44.6694L412.95 44.6694C414.049 44.6694 414.855 44.8591 415.392 45.2122L415.398 45.2156C415.921 45.5351 416.204 46.1076 416.204 46.9979C416.204 47.8678 415.922 48.5062 415.377 48.945C414.842 49.3726 414.043 49.6016 412.95 49.6016L410.821 49.6016Z" fill="white"/>
<path d="M433.009 41.9486L420.26 41.9486L420.26 44.7944L424.986 44.7944L424.986 58.6999L428.283 58.6999L428.283 44.7944L433.009 44.7944L433.009 41.9486Z" fill="white"/>
<path fill-rule="evenodd" clip-rule="evenodd" d="M441.03 41.9486L437.342 41.9486L431.886 58.6999L435.258 58.6999L436.533 54.2732L441.738 54.2732L443.014 58.6999L446.486 58.6999L441.03 41.9486ZM438.577 47.1984C438.775 46.4697 438.963 45.741 439.141 45.0122C439.326 45.7268 439.51 46.4466 439.695 47.1717L439.696 47.1749C439.946 48.0933 440.205 48.9867 440.472 49.8553L440.473 49.8571L440.975 51.6024L437.322 51.6024L437.824 49.8571L437.825 49.8553C438.092 48.9863 438.343 48.1007 438.577 47.1984Z" fill="white"/>
<path opacity="0.9" d="M344.654 66.274H353.492V68.146H346.742V71.764H352.718V73.654H346.742V77.146H353.492V79H344.654V66.274ZM361.236 79L358.932 75.616L356.7 79H354.432L357.69 74.176L354.594 69.514H356.97L359.04 72.862L361.056 69.514H363.396L360.264 74.23L363.594 79H361.236ZM364.878 82.69V69.514H366.822L366.93 70.864C367.302 70.36 367.758 69.982 368.298 69.73C368.838 69.478 369.42 69.352 370.044 69.352C370.692 69.352 371.274 69.472 371.79 69.712C372.306 69.94 372.744 70.264 373.104 70.684C373.476 71.104 373.752 71.614 373.932 72.214C374.124 72.802 374.22 73.474 374.22 74.23C374.22 74.938 374.13 75.592 373.95 76.192C373.77 76.792 373.5 77.314 373.14 77.758C372.792 78.19 372.354 78.526 371.826 78.766C371.31 79.006 370.704 79.126 370.008 79.126C369.408 79.126 368.838 79.036 368.298 78.856C367.77 78.664 367.314 78.37 366.93 77.974V82.69H364.878ZM369.612 77.344C370.056 77.344 370.44 77.266 370.764 77.11C371.088 76.942 371.352 76.72 371.556 76.444C371.772 76.168 371.928 75.844 372.024 75.472C372.132 75.1 372.186 74.698 372.186 74.266C372.186 73.834 372.132 73.432 372.024 73.06C371.928 72.676 371.772 72.346 371.556 72.07C371.352 71.794 371.082 71.578 370.746 71.422C370.422 71.266 370.032 71.188 369.576 71.188C369.132 71.188 368.748 71.272 368.424 71.44C368.1 71.608 367.824 71.83 367.596 72.106C367.368 72.382 367.194 72.712 367.074 73.096C366.966 73.468 366.912 73.852 366.912 74.248C366.912 75.124 367.14 75.856 367.596 76.444C368.052 77.032 368.724 77.332 369.612 77.344ZM380.359 69.352C381.115 69.352 381.781 69.472 382.357 69.712C382.933 69.952 383.419 70.288 383.815 70.72C384.223 71.14 384.529 71.65 384.733 72.25C384.937 72.85 385.039 73.516 385.039 74.248C385.039 74.992 384.937 75.664 384.733 76.264C384.541 76.852 384.247 77.362 383.851 77.794C383.455 78.226 382.963 78.556 382.375 78.784C381.799 79.012 381.127 79.126 380.359 79.126C379.603 79.126 378.937 79.012 378.361 78.784C377.785 78.544 377.299 78.214 376.903 77.794C376.519 77.362 376.225 76.846 376.021 76.246C375.829 75.646 375.733 74.98 375.733 74.248C375.733 73.516 375.829 72.85 376.021 72.25C376.225 71.65 376.525 71.14 376.921 70.72C377.317 70.288 377.803 69.952 378.379 69.712C378.955 69.472 379.615 69.352 380.359 69.352ZM380.359 77.344C380.827 77.344 381.223 77.266 381.547 77.11C381.883 76.942 382.153 76.72 382.357 76.444C382.573 76.168 382.729 75.844 382.825 75.472C382.933 75.1 382.987 74.698 382.987 74.266C382.987 73.834 382.933 73.432 382.825 73.06C382.729 72.676 382.573 72.346 382.357 72.07C382.153 71.794 381.883 71.578 381.547 71.422C381.223 71.266 380.827 71.188 380.359 71.188C379.903 71.188 379.513 71.266 379.189 71.422C378.865 71.578 378.595 71.794 378.379 72.07C378.163 72.346 378.001 72.676 377.893 73.06C377.797 73.432 377.749 73.834 377.749 74.266C377.749 74.698 377.797 75.1 377.893 75.472C378.001 75.844 378.157 76.168 378.361 76.444C378.577 76.72 378.847 76.942 379.171 77.11C379.507 77.266 379.903 77.344 380.359 77.344ZM386.904 79V69.514H388.83L388.938 70.864C389.67 69.856 390.666 69.352 391.926 69.352C392.046 69.352 392.16 69.358 392.268 69.37C392.388 69.37 392.496 69.376 392.592 69.388V71.296C392.448 71.296 392.304 71.302 392.16 71.314C392.028 71.314 391.896 71.314 391.764 71.314C391.236 71.326 390.792 71.422 390.432 71.602C390.084 71.77 389.796 71.998 389.568 72.286C389.352 72.574 389.196 72.916 389.1 73.312C389.004 73.696 388.956 74.11 388.956 74.554V79H386.904ZM396.761 69.514H399.605V71.296H396.761V75.472C396.761 75.712 396.773 75.94 396.797 76.156C396.833 76.372 396.893 76.57 396.977 76.75C397.073 76.918 397.205 77.056 397.373 77.164C397.541 77.272 397.769 77.326 398.057 77.326C398.561 77.326 398.993 77.176 399.353 76.876L400.037 78.406C399.725 78.646 399.365 78.826 398.957 78.946C398.549 79.054 398.147 79.108 397.751 79.108C396.719 79.108 395.957 78.85 395.465 78.334C394.973 77.806 394.727 76.984 394.727 75.868V71.296H393.233V69.514H394.727V66.814H396.761V69.514ZM413.729 78.01C413.249 78.43 412.709 78.736 412.109 78.928C411.521 79.12 410.861 79.216 410.129 79.216C409.589 79.216 409.079 79.138 408.599 78.982C408.119 78.826 407.699 78.604 407.339 78.316C406.991 78.016 406.709 77.65 406.493 77.218C406.289 76.774 406.187 76.27 406.187 75.706C406.187 74.878 406.409 74.182 406.853 73.618C407.309 73.054 407.897 72.58 408.617 72.196C408.209 71.8 407.885 71.374 407.645 70.918C407.417 70.462 407.303 69.97 407.303 69.442C407.303 68.926 407.393 68.464 407.573 68.056C407.753 67.648 407.999 67.306 408.311 67.03C408.623 66.742 408.989 66.526 409.409 66.382C409.829 66.238 410.285 66.166 410.777 66.166C411.221 66.166 411.641 66.232 412.037 66.364C412.433 66.484 412.781 66.67 413.081 66.922C413.381 67.162 413.615 67.462 413.783 67.822C413.951 68.182 414.035 68.596 414.035 69.064C414.035 69.448 413.963 69.814 413.819 70.162C413.675 70.498 413.483 70.81 413.243 71.098C413.015 71.386 412.739 71.65 412.415 71.89C412.103 72.13 411.779 72.346 411.443 72.538L413.783 75.256C413.951 74.944 414.083 74.614 414.179 74.266C414.287 73.918 414.365 73.564 414.413 73.204H416.285C416.225 73.804 416.093 74.392 415.889 74.968C415.685 75.532 415.403 76.078 415.043 76.606L417.221 79H414.647L413.729 78.01ZM410.273 71.35C410.453 71.242 410.651 71.116 410.867 70.972C411.083 70.828 411.287 70.666 411.479 70.486C411.671 70.306 411.827 70.114 411.947 69.91C412.079 69.706 412.145 69.49 412.145 69.262C412.145 68.842 412.013 68.512 411.749 68.272C411.497 68.02 411.161 67.894 410.741 67.894C410.285 67.894 409.907 68.014 409.607 68.254C409.319 68.494 409.175 68.848 409.175 69.316C409.175 69.532 409.205 69.736 409.265 69.928C409.337 70.12 409.427 70.3 409.535 70.468C409.643 70.624 409.763 70.774 409.895 70.918C410.027 71.062 410.153 71.206 410.273 71.35ZM409.715 73.474C409.283 73.714 408.911 74.008 408.599 74.356C408.299 74.692 408.149 75.106 408.149 75.598C408.149 75.922 408.215 76.204 408.347 76.444C408.479 76.672 408.653 76.864 408.869 77.02C409.085 77.164 409.325 77.272 409.589 77.344C409.865 77.416 410.147 77.452 410.435 77.452C410.819 77.452 411.197 77.392 411.569 77.272C411.941 77.14 412.283 76.948 412.595 76.696L409.715 73.474ZM425.984 79H423.896V66.274H425.984V79ZM430.543 69.514L430.633 70.684C431.293 69.796 432.157 69.352 433.225 69.352C433.897 69.352 434.437 69.49 434.845 69.766C435.253 70.042 435.571 70.414 435.799 70.882C436.171 70.378 436.591 70 437.059 69.748C437.539 69.484 438.097 69.352 438.733 69.352C439.273 69.352 439.735 69.442 440.119 69.622C440.515 69.802 440.827 70.054 441.055 70.378C441.295 70.702 441.469 71.08 441.577 71.512C441.685 71.932 441.739 72.382 441.739 72.862V79H439.687V73.618C439.687 73.33 439.669 73.042 439.633 72.754C439.597 72.466 439.519 72.208 439.399 71.98C439.291 71.74 439.129 71.548 438.913 71.404C438.697 71.26 438.409 71.188 438.049 71.188C437.665 71.188 437.347 71.278 437.095 71.458C436.855 71.638 436.663 71.86 436.519 72.124C436.387 72.388 436.297 72.688 436.249 73.024C436.201 73.348 436.177 73.672 436.177 73.996V79H434.143V73.582C434.143 73.306 434.125 73.03 434.089 72.754C434.065 72.466 433.999 72.208 433.891 71.98C433.783 71.752 433.621 71.566 433.405 71.422C433.201 71.266 432.913 71.188 432.541 71.188C432.181 71.188 431.863 71.284 431.587 71.476C431.323 71.656 431.119 71.89 430.975 72.178C430.831 72.454 430.735 72.76 430.687 73.096C430.639 73.42 430.615 73.72 430.615 73.996V79H428.581V69.514H430.543ZM443.874 82.69V69.514H445.818L445.926 70.864C446.298 70.36 446.754 69.982 447.294 69.73C447.834 69.478 448.416 69.352 449.04 69.352C449.688 69.352 450.27 69.472 450.786 69.712C451.302 69.94 451.74 70.264 452.1 70.684C452.472 71.104 452.748 71.614 452.928 72.214C453.12 72.802 453.216 73.474 453.216 74.23C453.216 74.938 453.126 75.592 452.946 76.192C452.766 76.792 452.496 77.314 452.136 77.758C451.788 78.19 451.35 78.526 450.822 78.766C450.306 79.006 449.7 79.126 449.004 79.126C448.404 79.126 447.834 79.036 447.294 78.856C446.766 78.664 446.31 78.37 445.926 77.974V82.69H443.874ZM448.608 77.344C449.052 77.344 449.436 77.266 449.76 77.11C450.084 76.942 450.348 76.72 450.552 76.444C450.768 76.168 450.924 75.844 451.02 75.472C451.128 75.1 451.182 74.698 451.182 74.266C451.182 73.834 451.128 73.432 451.02 73.06C450.924 72.676 450.768 72.346 450.552 72.07C450.348 71.794 450.078 71.578 449.742 71.422C449.418 71.266 449.028 71.188 448.572 71.188C448.128 71.188 447.744 71.272 447.42 71.44C447.096 71.608 446.82 71.83 446.592 72.106C446.364 72.382 446.19 72.712 446.07 73.096C445.962 73.468 445.908 73.852 445.908 74.248C445.908 75.124 446.136 75.856 446.592 76.444C447.048 77.032 447.72 77.332 448.608 77.344ZM459.355 69.352C460.111 69.352 460.777 69.472 461.353 69.712C461.929 69.952 462.415 70.288 462.811 70.72C463.219 71.14 463.525 71.65 463.729 72.25C463.933 72.85 464.035 73.516 464.035 74.248C464.035 74.992 463.933 75.664 463.729 76.264C463.537 76.852 463.243 77.362 462.847 77.794C462.451 78.226 461.959 78.556 461.371 78.784C460.795 79.012 460.123 79.126 459.355 79.126C458.599 79.126 457.933 79.012 457.357 78.784C456.781 78.544 456.295 78.214 455.899 77.794C455.515 77.362 455.221 76.846 455.017 76.246C454.825 75.646 454.729 74.98 454.729 74.248C454.729 73.516 454.825 72.85 455.017 72.25C455.221 71.65 455.521 71.14 455.917 70.72C456.313 70.288 456.799 69.952 457.375 69.712C457.951 69.472 458.611 69.352 459.355 69.352ZM459.355 77.344C459.823 77.344 460.219 77.266 460.543 77.11C460.879 76.942 461.149 76.72 461.353 76.444C461.569 76.168 461.725 75.844 461.821 75.472C461.929 75.1 461.983 74.698 461.983 74.266C461.983 73.834 461.929 73.432 461.821 73.06C461.725 72.676 461.569 72.346 461.353 72.07C461.149 71.794 460.879 71.578 460.543 71.422C460.219 71.266 459.823 71.188 459.355 71.188C458.899 71.188 458.509 71.266 458.185 71.422C457.861 71.578 457.591 71.794 457.375 72.07C457.159 72.346 456.997 72.676 456.889 73.06C456.793 73.432 456.745 73.834 456.745 74.266C456.745 74.698 456.793 75.1 456.889 75.472C456.997 75.844 457.153 76.168 457.357 76.444C457.573 76.72 457.843 76.942 458.167 77.11C458.503 77.266 458.899 77.344 459.355 77.344ZM465.9 79V69.514H467.826L467.934 70.864C468.666 69.856 469.662 69.352 470.922 69.352C471.042 69.352 471.156 69.358 471.264 69.37C471.384 69.37 471.492 69.376 471.588 69.388V71.296C471.444 71.296 471.3 71.302 471.156 71.314C471.024 71.314 470.892 71.314 470.76 71.314C470.232 71.326 469.788 71.422 469.428 71.602C469.08 71.77 468.792 71.998 468.564 72.286C468.348 72.574 468.192 72.916 468.096 73.312C468 73.696 467.952 74.11 467.952 74.554V79H465.9ZM475.757 69.514H478.601V71.296H475.757V75.472C475.757 75.712 475.769 75.94 475.793 76.156C475.829 76.372 475.889 76.57 475.973 76.75C476.069 76.918 476.201 77.056 476.369 77.164C476.537 77.272 476.765 77.326 477.053 77.326C477.557 77.326 477.989 77.176 478.349 76.876L479.033 78.406C478.721 78.646 478.361 78.826 477.953 78.946C477.545 79.054 477.143 79.108 476.747 79.108C475.715 79.108 474.953 78.85 474.461 78.334C473.969 77.806 473.723 76.984 473.723 75.868V71.296H472.229V69.514H473.723V66.814H475.757V69.514Z" fill="#00CCA4"/>
<g style="mix-blend-mode:multiply" filter="url(#filter0_ii_3379_1018)">
<path d="M350.604 199.059C352.933 195.681 358.152 196.588 359.205 200.554L361.802 210.339C362.483 212.904 365.114 214.431 367.679 213.75L428.27 197.665C433.4 196.304 438.663 199.358 440.025 204.488L445.94 226.77C447.301 231.9 444.247 237.163 439.117 238.525L378.526 254.609C375.961 255.29 374.434 257.922 375.115 260.487L377.712 270.272C378.765 274.238 374.683 277.613 370.985 275.835L320.992 251.791C318.334 250.512 317.445 247.162 319.119 244.733L350.604 199.059Z" fill="#D9D9D9"/>
</g>
<path d="M350.604 199.059C352.933 195.681 358.152 196.588 359.205 200.554L361.802 210.339C362.483 212.904 365.114 214.431 367.679 213.75L428.27 197.665C433.4 196.304 438.663 199.358 440.025 204.488L445.94 226.77C447.301 231.9 444.247 237.163 439.117 238.525L378.526 254.609C375.961 255.29 374.434 257.922 375.115 260.487L377.712 270.272C378.765 274.238 374.683 277.613 370.985 275.835L320.992 251.791C318.334 250.512 317.445 247.162 319.119 244.733L350.604 199.059Z" fill="#D9D9D9"/>
<path d="M350.604 199.059C352.933 195.681 358.152 196.588 359.205 200.554L361.802 210.339C362.483 212.904 365.114 214.431 367.679 213.75L428.27 197.665C433.4 196.304 438.663 199.358 440.025 204.488L445.94 226.77C447.301 231.9 444.247 237.163 439.117 238.525L378.526 254.609C375.961 255.29 374.434 257.922 375.115 260.487L377.712 270.272C378.765 274.238 374.683 277.613 370.985 275.835L320.992 251.791C318.334 250.512 317.445 247.162 319.119 244.733L350.604 199.059Z" fill="url(#paint0_radial_3379_1018)" fill-opacity="0.7"/>
<path d="M487.272 192.462C484.977 195.863 479.749 195.008 478.657 191.052L475.964 181.293C475.257 178.735 472.611 177.234 470.053 177.94L409.624 194.621C404.507 196.033 399.215 193.03 397.803 187.914L391.668 165.691C390.256 160.575 393.259 155.282 398.375 153.87L458.804 137.19C461.363 136.483 462.864 133.837 462.158 131.279L459.464 121.52C458.372 117.565 462.421 114.149 466.136 115.891L516.363 139.442C519.034 140.694 519.956 144.035 518.306 146.48L487.272 192.462Z" fill="#D9D9D9"/>
<path d="M487.272 192.462C484.977 195.863 479.749 195.008 478.657 191.052L475.964 181.293C475.257 178.735 472.611 177.234 470.053 177.94L409.624 194.621C404.507 196.033 399.215 193.03 397.803 187.914L391.668 165.691C390.256 160.575 393.259 155.282 398.375 153.87L458.804 137.19C461.363 136.483 462.864 133.837 462.158 131.279L459.464 121.52C458.372 117.565 462.421 114.149 466.136 115.891L516.363 139.442C519.034 140.694 519.956 144.035 518.306 146.48L487.272 192.462Z" fill="url(#paint1_radial_3379_1018)" fill-opacity="0.7"/>
</g>
<defs>
<filter id="filter0_ii_3379_1018" x="318.269" y="193.616" width="127.995" height="84.628" filterUnits="userSpaceOnUse" color-interpolation-filters="sRGB">
<feFlood flood-opacity="0" result="BackgroundImageFix"/>
<feBlend mode="normal" in="SourceGraphic" in2="BackgroundImageFix" result="shape"/>
<feColorMatrix in="SourceAlpha" type="matrix" values="0 0 0 0 0 0 0 0 0 0 0 0 0 0 0 0 0 0 127 0" result="hardAlpha"/>
<feOffset dy="-3.36362"/>
<feGaussianBlur stdDeviation="4.80517"/>
<feComposite in2="hardAlpha" operator="arithmetic" k2="-1" k3="1"/>
<feColorMatrix type="matrix" values="0 0 0 0 0 0 0 0 0 0 0 0 0 0 0 0 0 0 0.4 0"/>
<feBlend mode="normal" in2="shape" result="effect1_innerShadow_3379_1018"/>
<feColorMatrix in="SourceAlpha" type="matrix" values="0 0 0 0 0 0 0 0 0 0 0 0 0 0 0 0 0 0 127 0" result="hardAlpha"/>
<feOffset dy="1.92207"/>
<feGaussianBlur stdDeviation="1.41752"/>
<feComposite in2="hardAlpha" operator="arithmetic" k2="-1" k3="1"/>
<feColorMatrix type="matrix" values="0 0 0 0 1 0 0 0 0 1 0 0 0 0 1 0 0 0 0.45 0"/>
<feBlend mode="normal" in2="effect1_innerShadow_3379_1018" result="effect2_innerShadow_3379_1018"/>
</filter>
<radialGradient id="paint0_radial_3379_1018" cx="0" cy="0" r="1" gradientTransform="matrix(181.75 -52.5 100.662 143.401 285.743 243.5)" gradientUnits="userSpaceOnUse">
<stop offset="0.271425" stop-color="#00CCA4"/>
<stop offset="0.870819" stop-color="#F1FFFD"/>
</radialGradient>
<radialGradient id="paint1_radial_3379_1018" cx="0" cy="0" r="1" gradientTransform="matrix(-160 47 -89.3018 -126.005 578.5 122)" gradientUnits="userSpaceOnUse">
<stop offset="0.355553" stop-color="#F1FFFD"/>
<stop offset="0.675287" stop-color="#93A7FA"/>
<stop offset="1" stop-color="#6079FF"/>
</radialGradient>
<clipPath id="clip0_3379_1018">
<rect width="541" height="282" fill="white"/>
</clipPath>
</defs>
</svg>
