<?xml version="1.0"?>
<svg width="59" height="76" xmlns="http://www.w3.org/2000/svg" xmlns:svg="http://www.w3.org/2000/svg">
    <style>
    #frame1 {
      visibility: hidden;
      animation: 1s show infinite;
    }

    #frame2 {
      visibility: hidden;
      animation: 1s show infinite;
      animation-delay: 0.077s;
    }

    #frame3 {
      visibility: hidden;
      animation: 1s show infinite;
      animation-delay: 0.154s;
    }

    #frame4 {
      visibility: hidden;
      animation: 1s show infinite;
      animation-delay: 0.231s;
    }

    #frame5 {
      visibility: hidden;
      animation: 1s show infinite;
      animation-delay: 0.308s;
    }

    #frame6 {
      visibility: hidden;
      animation: 1s show infinite;
      animation-delay: 0.385s;
    }

    #frame7 {
      visibility: hidden;
      animation: 1s show infinite;
      animation-delay: 0.462s;
    }

    #frame8 {
      visibility: hidden;
      animation: 1s show infinite;
      animation-delay: 0.539s;
    }

    #frame9 {
      visibility: hidden;
      animation: 1s show infinite;
      animation-delay: 0.616s;
    }

    #frame10 {
      visibility: hidden;
      animation: 1s show infinite;
      animation-delay: 0.693s;
    }

    #frame11 {
      visibility: hidden;
      animation: 1s show infinite;
      animation-delay: 0.770s;
    }

    #frame12 {
      visibility: hidden;
      animation: 1s show infinite;
      animation-delay: 0.857s;
    }

    #frame13 {
      visibility: hidden;
      animation: 1s show infinite;
      animation-delay: 0.934s;
    }

    @keyframes show {
      0%   { visibility: visible;}
      7.7%  { visibility: visible; }
      7.8%  { visibility: hidden; }
      100% { visibility: hidden; }
    }
    </style>
    <g id="frame1">
        <defs>
            <clipPath id="clip0_631_2925">
             <rect fill="white" height="75.97" id="svg_1" width="58.33"/>
            </clipPath>
        </defs>
        <g class="layer">
            <title>Layer 1</title>
            <g clip-path="url(#clip0_631_2925)" id="svg_2">
             <path d="m48.51,34.12c-0.79,-1.13 -1.66,-2.37 -2.61,-3.72c-0.46,-0.67 -1.51,-0.53 -1.84,0.21c-0.9,1.99 -2.15,4.09 -3.81,6.59c-0.23,0.34 -0.22,0.79 0.01,1.13c0.26,0.36 0.51,0.71 0.74,1.05c7.36,10.47 8.16,11.75 8.16,15.61c0,6.51 -5.3,11.81 -11.81,11.81c-3.15,0 -6.13,-1.23 -8.35,-3.46c-2.23,-2.22 -3.46,-5.2 -3.46,-8.35c0,-3.59 0.71,-4.97 6.76,-13.61c0.24,-0.34 0.25,-0.8 0.01,-1.14l-4.3,-6.33c-0.39,-0.58 -1.25,-0.59 -1.64,-0.01c-0.06,0.07 -0.11,0.15 -0.16,0.22c-7.74,11.03 -9.82,13.99 -9.82,20.87c0,5.6 2.18,10.87 6.15,14.82c3.95,3.96 9.22,6.15 14.82,6.15c11.56,0 20.97,-9.41 20.97,-20.97c0,-6.88 -2.08,-9.84 -9.82,-20.87z" fill="#ffffff" id="svg_3"/>
             <path d="m18.07,38.76c0.22,-0.34 0.22,-0.79 -0.01,-1.12c-0.26,-0.37 -0.51,-0.72 -0.74,-1.06c-7.36,-10.47 -8.16,-11.76 -8.16,-15.61c0,-6.51 5.3,-11.81 11.81,-11.81c3.15,0 6.12,1.23 8.35,3.46c2.23,2.22 3.46,5.19 3.46,8.35c0,2.54 -0.35,3.97 -2.7,7.65c-0.22,0.34 -0.21,0.78 0.01,1.11l4.6,6.76c0.27,0.41 0.87,0.41 1.15,0l0.65,-0.97c2.08,-3.1 3.31,-5.24 4.09,-7.13c0.05,-0.11 0.09,-0.21 0.13,-0.3c0.07,-0.18 0.14,-0.38 0.21,-0.56c0.73,-2.05 1.01,-4.04 1.01,-6.55c0,-5.6 -2.18,-10.87 -6.15,-14.82c-3.95,-3.98 -9.21,-6.16 -14.81,-6.16c-11.56,0 -20.97,9.41 -20.97,20.97c0,6.88 2.08,9.84 9.82,20.87c0.79,1.13 1.66,2.37 2.61,3.72c0.46,0.67 1.5,0.53 1.84,-0.21c0.9,-1.99 2.14,-4.09 3.8,-6.59z" fill="#ffffff" id="svg_4"/>
             <path d="m21.05,64.41c0,-6.19 1.71,-9.24 7.7,-17.84c1.18,-1.79 2.77,-4.08 4.95,-7.19c1.13,-1.6 2.39,-3.4 3.8,-5.44l-7.52,-5.23c-1.4,2.03 -2.66,3.82 -3.78,5.41c-7.74,11.03 -9.82,13.99 -9.82,20.87c0,5.08 1.81,9.88 5.1,13.69c-0.28,-1.39 -0.43,-2.82 -0.43,-4.27z" fill="#ffffff" id="svg_5"/>
             <circle cx="21" cy="21" fill="#ffffff" id="svg_6" r="5"/>
             <circle cx="37" cy="55" fill="#ffffff" id="svg_7" r="5"/>
            </g>
            <path d="m45.23,32.63c-5.38,4.75 9.79,36.5 10.52,12.13l-10.52,-12.13z" fill="#6877ff" id="svg_13" stroke="#6877ff"/>
        </g>
    </g>

    <g id="frame2">
        <defs>
         <clipPath id="clip0_631_2925">
          <rect fill="white" height="75.97" id="svg_1" width="58.33"/>
         </clipPath>
        </defs>
        <g class="layer">
         <title>Layer 1</title>
         <g clip-path="url(#clip0_631_2925)" id="svg_2">
          <path d="m48.51,34.12c-0.79,-1.13 -1.66,-2.37 -2.61,-3.72c-0.46,-0.67 -1.51,-0.53 -1.84,0.21c-0.9,1.99 -2.15,4.09 -3.81,6.59c-0.23,0.34 -0.22,0.79 0.01,1.13c0.26,0.36 0.51,0.71 0.74,1.05c7.36,10.47 8.16,11.75 8.16,15.61c0,6.51 -5.3,11.81 -11.81,11.81c-3.15,0 -6.13,-1.23 -8.35,-3.46c-2.23,-2.22 -3.46,-5.2 -3.46,-8.35c0,-3.59 0.71,-4.97 6.76,-13.61c0.24,-0.34 0.25,-0.8 0.01,-1.14l-4.3,-6.33c-0.39,-0.58 -1.25,-0.59 -1.64,-0.01c-0.06,0.07 -0.11,0.15 -0.16,0.22c-7.74,11.03 -9.82,13.99 -9.82,20.87c0,5.6 2.18,10.87 6.15,14.82c3.95,3.96 9.22,6.15 14.82,6.15c11.56,0 20.97,-9.41 20.97,-20.97c0,-6.88 -2.08,-9.84 -9.82,-20.87z" fill="#ffffff" id="svg_3"/>
          <path d="m18.07,38.76c0.22,-0.34 0.22,-0.79 -0.01,-1.12c-0.26,-0.37 -0.51,-0.72 -0.74,-1.06c-7.36,-10.47 -8.16,-11.76 -8.16,-15.61c0,-6.51 5.3,-11.81 11.81,-11.81c3.15,0 6.12,1.23 8.35,3.46c2.23,2.22 3.46,5.19 3.46,8.35c0,2.54 -0.35,3.97 -2.7,7.65c-0.22,0.34 -0.21,0.78 0.01,1.11l4.6,6.76c0.27,0.41 0.87,0.41 1.15,0l0.65,-0.97c2.08,-3.1 3.31,-5.24 4.09,-7.13c0.05,-0.11 0.09,-0.21 0.13,-0.3c0.07,-0.18 0.14,-0.38 0.21,-0.56c0.73,-2.05 1.01,-4.04 1.01,-6.55c0,-5.6 -2.18,-10.87 -6.15,-14.82c-3.95,-3.98 -9.21,-6.16 -14.81,-6.16c-11.56,0 -20.97,9.41 -20.97,20.97c0,6.88 2.08,9.84 9.82,20.87c0.79,1.13 1.66,2.37 2.61,3.72c0.46,0.67 1.5,0.53 1.84,-0.21c0.9,-1.99 2.14,-4.09 3.8,-6.59z" fill="#ffffff" id="svg_4"/>
          <path d="m21.05,64.41c0,-6.19 1.71,-9.24 7.7,-17.84c1.18,-1.79 2.77,-4.08 4.95,-7.19c1.13,-1.6 2.39,-3.4 3.8,-5.44l-7.52,-5.23c-1.4,2.03 -2.66,3.82 -3.78,5.41c-7.74,11.03 -9.82,13.99 -9.82,20.87c0,5.08 1.81,9.88 5.1,13.69c-0.28,-1.39 -0.43,-2.82 -0.43,-4.27z" fill="#ffffff" id="svg_5"/>
          <circle cx="21" cy="21" fill="#ffffff" id="svg_6" r="5"/>
          <circle cx="37" cy="55" fill="#ffffff" id="svg_7" r="5"/>
         </g>
         <path d="m48.98,40.63c-5.38,4.75 9.79,36.5 10.52,12.13l-10.52,-12.13z" fill="#6877ff" id="svg_13" stroke="#6877ff" transform="rotate(17.6766 53.6609 51.2404)"/>
        </g>
    </g>

    <g id="frame3">
        <defs>
          <clipPath id="clip0_631_2925">
           <rect fill="white" height="75.97" id="svg_1" width="58.33"/>
          </clipPath>
        </defs>
        <g class="layer">
          <title>Layer 1</title>
          <g clip-path="url(#clip0_631_2925)" id="svg_2">
           <path d="m48.51,34.12c-0.79,-1.13 -1.66,-2.37 -2.61,-3.72c-0.46,-0.67 -1.51,-0.53 -1.84,0.21c-0.9,1.99 -2.15,4.09 -3.81,6.59c-0.23,0.34 -0.22,0.79 0.01,1.13c0.26,0.36 0.51,0.71 0.74,1.05c7.36,10.47 8.16,11.75 8.16,15.61c0,6.51 -5.3,11.81 -11.81,11.81c-3.15,0 -6.13,-1.23 -8.35,-3.46c-2.23,-2.22 -3.46,-5.2 -3.46,-8.35c0,-3.59 0.71,-4.97 6.76,-13.61c0.24,-0.34 0.25,-0.8 0.01,-1.14l-4.3,-6.33c-0.39,-0.58 -1.25,-0.59 -1.64,-0.01c-0.06,0.07 -0.11,0.15 -0.16,0.22c-7.74,11.03 -9.82,13.99 -9.82,20.87c0,5.6 2.18,10.87 6.15,14.82c3.95,3.96 9.22,6.15 14.82,6.15c11.56,0 20.97,-9.41 20.97,-20.97c0,-6.88 -2.08,-9.84 -9.82,-20.87z" fill="#ffffff" id="svg_3"/>
           <path d="m18.07,38.76c0.22,-0.34 0.22,-0.79 -0.01,-1.12c-0.26,-0.37 -0.51,-0.72 -0.74,-1.06c-7.36,-10.47 -8.16,-11.76 -8.16,-15.61c0,-6.51 5.3,-11.81 11.81,-11.81c3.15,0 6.12,1.23 8.35,3.46c2.23,2.22 3.46,5.19 3.46,8.35c0,2.54 -0.35,3.97 -2.7,7.65c-0.22,0.34 -0.21,0.78 0.01,1.11l4.6,6.76c0.27,0.41 0.87,0.41 1.15,0l0.65,-0.97c2.08,-3.1 3.31,-5.24 4.09,-7.13c0.05,-0.11 0.09,-0.21 0.13,-0.3c0.07,-0.18 0.14,-0.38 0.21,-0.56c0.73,-2.05 1.01,-4.04 1.01,-6.55c0,-5.6 -2.18,-10.87 -6.15,-14.82c-3.95,-3.98 -9.21,-6.16 -14.81,-6.16c-11.56,0 -20.97,9.41 -20.97,20.97c0,6.88 2.08,9.84 9.82,20.87c0.79,1.13 1.66,2.37 2.61,3.72c0.46,0.67 1.5,0.53 1.84,-0.21c0.9,-1.99 2.14,-4.09 3.8,-6.59z" fill="#ffffff" id="svg_4"/>
           <path d="m21.05,64.41c0,-6.19 1.71,-9.24 7.7,-17.84c1.18,-1.79 2.77,-4.08 4.95,-7.19c1.13,-1.6 2.39,-3.4 3.8,-5.44l-7.52,-5.23c-1.4,2.03 -2.66,3.82 -3.78,5.41c-7.74,11.03 -9.82,13.99 -9.82,20.87c0,5.08 1.81,9.88 5.1,13.69c-0.28,-1.39 -0.43,-2.82 -0.43,-4.27z" fill="#ffffff" id="svg_5"/>
           <circle cx="21" cy="21" fill="#ffffff" id="svg_6" r="5"/>
           <circle cx="37" cy="55" fill="#ffffff" id="svg_7" r="5"/>
          </g>
          <path d="m48.53,48.6c-4.66,5.36 8.48,41.2 9.12,13.69l-9.12,-13.69z" fill="#6877ff" id="svg_13" stroke="#6877ff" transform="rotate(38.6487 52.5878 60.5821)"/>
        </g>
    </g>

    <g id="frame4">
        <defs>
         <clipPath id="clip0_631_2925">
          <rect fill="white" height="75.97" id="svg_1" width="58.33"/>
         </clipPath>
        </defs>
        <g class="layer">
         <title>Layer 1</title>
         <g clip-path="url(#clip0_631_2925)" id="svg_2">
          <path d="m48.51,34.12c-0.79,-1.13 -1.66,-2.37 -2.61,-3.72c-0.46,-0.67 -1.51,-0.53 -1.84,0.21c-0.9,1.99 -2.15,4.09 -3.81,6.59c-0.23,0.34 -0.22,0.79 0.01,1.13c0.26,0.36 0.51,0.71 0.74,1.05c7.36,10.47 8.16,11.75 8.16,15.61c0,6.51 -5.3,11.81 -11.81,11.81c-3.15,0 -6.13,-1.23 -8.35,-3.46c-2.23,-2.22 -3.46,-5.2 -3.46,-8.35c0,-3.59 0.71,-4.97 6.76,-13.61c0.24,-0.34 0.25,-0.8 0.01,-1.14l-4.3,-6.33c-0.39,-0.58 -1.25,-0.59 -1.64,-0.01c-0.06,0.07 -0.11,0.15 -0.16,0.22c-7.74,11.03 -9.82,13.99 -9.82,20.87c0,5.6 2.18,10.87 6.15,14.82c3.95,3.96 9.22,6.15 14.82,6.15c11.56,0 20.97,-9.41 20.97,-20.97c0,-6.88 -2.08,-9.84 -9.82,-20.87z" fill="#ffffff" id="svg_3"/>
          <path d="m18.07,38.76c0.22,-0.34 0.22,-0.79 -0.01,-1.12c-0.26,-0.37 -0.51,-0.72 -0.74,-1.06c-7.36,-10.47 -8.16,-11.76 -8.16,-15.61c0,-6.51 5.3,-11.81 11.81,-11.81c3.15,0 6.12,1.23 8.35,3.46c2.23,2.22 3.46,5.19 3.46,8.35c0,2.54 -0.35,3.97 -2.7,7.65c-0.22,0.34 -0.21,0.78 0.01,1.11l4.6,6.76c0.27,0.41 0.87,0.41 1.15,0l0.65,-0.97c2.08,-3.1 3.31,-5.24 4.09,-7.13c0.05,-0.11 0.09,-0.21 0.13,-0.3c0.07,-0.18 0.14,-0.38 0.21,-0.56c0.73,-2.05 1.01,-4.04 1.01,-6.55c0,-5.6 -2.18,-10.87 -6.15,-14.82c-3.95,-3.98 -9.21,-6.16 -14.81,-6.16c-11.56,0 -20.97,9.41 -20.97,20.97c0,6.88 2.08,9.84 9.82,20.87c0.79,1.13 1.66,2.37 2.61,3.72c0.46,0.67 1.5,0.53 1.84,-0.21c0.9,-1.99 2.14,-4.09 3.8,-6.59z" fill="#ffffff" id="svg_4"/>
          <path d="m21.05,64.41c0,-6.19 1.71,-9.24 7.7,-17.84c1.18,-1.79 2.77,-4.08 4.95,-7.19c1.13,-1.6 2.39,-3.4 3.8,-5.44l-7.52,-5.23c-1.4,2.03 -2.66,3.82 -3.78,5.41c-7.74,11.03 -9.82,13.99 -9.82,20.87c0,5.08 1.81,9.88 5.1,13.69c-0.28,-1.39 -0.43,-2.82 -0.43,-4.27z" fill="#ffffff" id="svg_5"/>
          <circle cx="21" cy="21" fill="#ffffff" id="svg_6" r="5"/>
          <circle cx="37" cy="55" fill="#ffffff" id="svg_7" r="5"/>
         </g>
         <path d="m41.92,57.08c-4.68,5.2 8.52,39.96 9.15,13.27l-9.15,-13.27z" fill="#6877ff" id="svg_13" stroke="#6877ff" transform="rotate(74.6238 45.9947 68.6983)"/>
        </g>
    </g>

    <g id="frame5">
        <defs>
         <clipPath id="clip0_631_2925">
          <rect fill="white" height="75.97" id="svg_1" width="58.33"/>
         </clipPath>
        </defs>
        <g class="layer">
         <title>Layer 1</title>
         <g clip-path="url(#clip0_631_2925)" id="svg_2">
          <path d="m48.51,34.12c-0.79,-1.13 -1.66,-2.37 -2.61,-3.72c-0.46,-0.67 -1.51,-0.53 -1.84,0.21c-0.9,1.99 -2.15,4.09 -3.81,6.59c-0.23,0.34 -0.22,0.79 0.01,1.13c0.26,0.36 0.51,0.71 0.74,1.05c7.36,10.47 8.16,11.75 8.16,15.61c0,6.51 -5.3,11.81 -11.81,11.81c-3.15,0 -6.13,-1.23 -8.35,-3.46c-2.23,-2.22 -3.46,-5.2 -3.46,-8.35c0,-3.59 0.71,-4.97 6.76,-13.61c0.24,-0.34 0.25,-0.8 0.01,-1.14l-4.3,-6.33c-0.39,-0.58 -1.25,-0.59 -1.64,-0.01c-0.06,0.07 -0.11,0.15 -0.16,0.22c-7.74,11.03 -9.82,13.99 -9.82,20.87c0,5.6 2.18,10.87 6.15,14.82c3.95,3.96 9.22,6.15 14.82,6.15c11.56,0 20.97,-9.41 20.97,-20.97c0,-6.88 -2.08,-9.84 -9.82,-20.87z" fill="#ffffff" id="svg_3"/>
          <path d="m18.07,38.76c0.22,-0.34 0.22,-0.79 -0.01,-1.12c-0.26,-0.37 -0.51,-0.72 -0.74,-1.06c-7.36,-10.47 -8.16,-11.76 -8.16,-15.61c0,-6.51 5.3,-11.81 11.81,-11.81c3.15,0 6.12,1.23 8.35,3.46c2.23,2.22 3.46,5.19 3.46,8.35c0,2.54 -0.35,3.97 -2.7,7.65c-0.22,0.34 -0.21,0.78 0.01,1.11l4.6,6.76c0.27,0.41 0.87,0.41 1.15,0l0.65,-0.97c2.08,-3.1 3.31,-5.24 4.09,-7.13c0.05,-0.11 0.09,-0.21 0.13,-0.3c0.07,-0.18 0.14,-0.38 0.21,-0.56c0.73,-2.05 1.01,-4.04 1.01,-6.55c0,-5.6 -2.18,-10.87 -6.15,-14.82c-3.95,-3.98 -9.21,-6.16 -14.81,-6.16c-11.56,0 -20.97,9.41 -20.97,20.97c0,6.88 2.08,9.84 9.82,20.87c0.79,1.13 1.66,2.37 2.61,3.72c0.46,0.67 1.5,0.53 1.84,-0.21c0.9,-1.99 2.14,-4.09 3.8,-6.59z" fill="#ffffff" id="svg_4"/>
          <path d="m21.05,64.41c0,-6.19 1.71,-9.24 7.7,-17.84c1.18,-1.79 2.77,-4.08 4.95,-7.19c1.13,-1.6 2.39,-3.4 3.8,-5.44l-7.52,-5.23c-1.4,2.03 -2.66,3.82 -3.78,5.41c-7.74,11.03 -9.82,13.99 -9.82,20.87c0,5.08 1.81,9.88 5.1,13.69c-0.28,-1.39 -0.43,-2.82 -0.43,-4.27z" fill="#ffffff" id="svg_5"/>
          <circle cx="21" cy="21" fill="#ffffff" id="svg_6" r="5"/>
          <circle cx="37" cy="55" fill="#ffffff" id="svg_7" r="5"/>
         </g>
         <path d="m28.17,58.58c-4.68,5.2 8.52,39.96 9.15,13.27l-9.15,-13.27z" fill="#6877ff" id="svg_13" stroke="#6877ff" transform="rotate(124.166 32.2447 70.1983)"/>
        </g>
    </g>

    <g id="frame6">
        <defs>
         <clipPath id="clip0_631_2925">
          <rect fill="white" height="75.97" id="svg_1" width="58.33"/>
         </clipPath>
        </defs>
        <g class="layer">
         <title>Layer 1</title>
         <g clip-path="url(#clip0_631_2925)" id="svg_2">
          <path d="m48.51,34.12c-0.79,-1.13 -1.66,-2.37 -2.61,-3.72c-0.46,-0.67 -1.51,-0.53 -1.84,0.21c-0.9,1.99 -2.15,4.09 -3.81,6.59c-0.23,0.34 -0.22,0.79 0.01,1.13c0.26,0.36 0.51,0.71 0.74,1.05c7.36,10.47 8.16,11.75 8.16,15.61c0,6.51 -5.3,11.81 -11.81,11.81c-3.15,0 -6.13,-1.23 -8.35,-3.46c-2.23,-2.22 -3.46,-5.2 -3.46,-8.35c0,-3.59 0.71,-4.97 6.76,-13.61c0.24,-0.34 0.25,-0.8 0.01,-1.14l-4.3,-6.33c-0.39,-0.58 -1.25,-0.59 -1.64,-0.01c-0.06,0.07 -0.11,0.15 -0.16,0.22c-7.74,11.03 -9.82,13.99 -9.82,20.87c0,5.6 2.18,10.87 6.15,14.82c3.95,3.96 9.22,6.15 14.82,6.15c11.56,0 20.97,-9.41 20.97,-20.97c0,-6.88 -2.08,-9.84 -9.82,-20.87z" fill="#ffffff" id="svg_3"/>
          <path d="m18.07,38.76c0.22,-0.34 0.22,-0.79 -0.01,-1.12c-0.26,-0.37 -0.51,-0.72 -0.74,-1.06c-7.36,-10.47 -8.16,-11.76 -8.16,-15.61c0,-6.51 5.3,-11.81 11.81,-11.81c3.15,0 6.12,1.23 8.35,3.46c2.23,2.22 3.46,5.19 3.46,8.35c0,2.54 -0.35,3.97 -2.7,7.65c-0.22,0.34 -0.21,0.78 0.01,1.11l4.6,6.76c0.27,0.41 0.87,0.41 1.15,0l0.65,-0.97c2.08,-3.1 3.31,-5.24 4.09,-7.13c0.05,-0.11 0.09,-0.21 0.13,-0.3c0.07,-0.18 0.14,-0.38 0.21,-0.56c0.73,-2.05 1.01,-4.04 1.01,-6.55c0,-5.6 -2.18,-10.87 -6.15,-14.82c-3.95,-3.98 -9.21,-6.16 -14.81,-6.16c-11.56,0 -20.97,9.41 -20.97,20.97c0,6.88 2.08,9.84 9.82,20.87c0.79,1.13 1.66,2.37 2.61,3.72c0.46,0.67 1.5,0.53 1.84,-0.21c0.9,-1.99 2.14,-4.09 3.8,-6.59z" fill="#ffffff" id="svg_4"/>
          <path d="m21.05,64.41c0,-6.19 1.71,-9.24 7.7,-17.84c1.18,-1.79 2.77,-4.08 4.95,-7.19c1.13,-1.6 2.39,-3.4 3.8,-5.44l-7.52,-5.23c-1.4,2.03 -2.66,3.82 -3.78,5.41c-7.74,11.03 -9.82,13.99 -9.82,20.87c0,5.08 1.81,9.88 5.1,13.69c-0.28,-1.39 -0.43,-2.82 -0.43,-4.27z" fill="#ffffff" id="svg_5"/>
          <circle cx="21" cy="21" fill="#ffffff" id="svg_6" r="5"/>
          <circle cx="37" cy="55" fill="#ffffff" id="svg_7" r="5"/>
         </g>
         <path d="m17.17,43.83c-4.68,5.2 8.52,39.96 9.15,13.27l-9.15,-13.27z" fill="#6877ff" id="svg_13" stroke="#6877ff" transform="rotate(-162.784 21.2447 55.4483)"/>
        </g>
    </g>

    <g id="frame7">
        <defs>
         <clipPath id="clip0_631_2925">
          <rect fill="white" height="75.97" id="svg_1" width="58.33"/>
         </clipPath>
        </defs>
        <g class="layer">
         <title>Layer 1</title>
         <g clip-path="url(#clip0_631_2925)" id="svg_2">
          <path d="m48.51,34.12c-0.79,-1.13 -1.66,-2.37 -2.61,-3.72c-0.46,-0.67 -1.51,-0.53 -1.84,0.21c-0.9,1.99 -2.15,4.09 -3.81,6.59c-0.23,0.34 -0.22,0.79 0.01,1.13c0.26,0.36 0.51,0.71 0.74,1.05c7.36,10.47 8.16,11.75 8.16,15.61c0,6.51 -5.3,11.81 -11.81,11.81c-3.15,0 -6.13,-1.23 -8.35,-3.46c-2.23,-2.22 -3.46,-5.2 -3.46,-8.35c0,-3.59 0.71,-4.97 6.76,-13.61c0.24,-0.34 0.25,-0.8 0.01,-1.14l-4.3,-6.33c-0.39,-0.58 -1.25,-0.59 -1.64,-0.01c-0.06,0.07 -0.11,0.15 -0.16,0.22c-7.74,11.03 -9.82,13.99 -9.82,20.87c0,5.6 2.18,10.87 6.15,14.82c3.95,3.96 9.22,6.15 14.82,6.15c11.56,0 20.97,-9.41 20.97,-20.97c0,-6.88 -2.08,-9.84 -9.82,-20.87z" fill="#ffffff" id="svg_3"/>
          <path d="m18.07,38.76c0.22,-0.34 0.22,-0.79 -0.01,-1.12c-0.26,-0.37 -0.51,-0.72 -0.74,-1.06c-7.36,-10.47 -8.16,-11.76 -8.16,-15.61c0,-6.51 5.3,-11.81 11.81,-11.81c3.15,0 6.12,1.23 8.35,3.46c2.23,2.22 3.46,5.19 3.46,8.35c0,2.54 -0.35,3.97 -2.7,7.65c-0.22,0.34 -0.21,0.78 0.01,1.11l4.6,6.76c0.27,0.41 0.87,0.41 1.15,0l0.65,-0.97c2.08,-3.1 3.31,-5.24 4.09,-7.13c0.05,-0.11 0.09,-0.21 0.13,-0.3c0.07,-0.18 0.14,-0.38 0.21,-0.56c0.73,-2.05 1.01,-4.04 1.01,-6.55c0,-5.6 -2.18,-10.87 -6.15,-14.82c-3.95,-3.98 -9.21,-6.16 -14.81,-6.16c-11.56,0 -20.97,9.41 -20.97,20.97c0,6.88 2.08,9.84 9.82,20.87c0.79,1.13 1.66,2.37 2.61,3.72c0.46,0.67 1.5,0.53 1.84,-0.21c0.9,-1.99 2.14,-4.09 3.8,-6.59z" fill="#ffffff" id="svg_4"/>
          <path d="m21.05,64.41c0,-6.19 1.71,-9.24 7.7,-17.84c1.18,-1.79 2.77,-4.08 4.95,-7.19c1.13,-1.6 2.39,-3.4 3.8,-5.44l-7.52,-5.23c-1.4,2.03 -2.66,3.82 -3.78,5.41c-7.74,11.03 -9.82,13.99 -9.82,20.87c0,5.08 1.81,9.88 5.1,13.69c-0.28,-1.39 -0.43,-2.82 -0.43,-4.27z" fill="#ffffff" id="svg_5"/>
          <circle cx="21" cy="21" fill="#ffffff" id="svg_6" r="5"/>
          <circle cx="37" cy="55" fill="#ffffff" id="svg_7" r="5"/>
         </g>
         <path d="m15.97,60.05c-4.68,5.2 8.52,39.96 9.15,13.27l-9.15,-13.27z" fill="#6877ff" id="svg_13" stroke="#6877ff" transform="rotate(38.3805 27.4348 40.305) matrix(-0.930817 -0.295967 0.288413 -0.955198 25.418 114.7)"/>
        </g>
    </g>

    <g id="frame8">
        <defs>
         <clipPath id="clip0_631_2925">
          <rect fill="white" height="75.97" id="svg_1" width="58.33"/>
         </clipPath>
        </defs>
        <g class="layer">
         <title>Layer 1</title>
         <g clip-path="url(#clip0_631_2925)" id="svg_2">
          <path d="m48.51,34.12c-0.79,-1.13 -1.66,-2.37 -2.61,-3.72c-0.46,-0.67 -1.51,-0.53 -1.84,0.21c-0.9,1.99 -2.15,4.09 -3.81,6.59c-0.23,0.34 -0.22,0.79 0.01,1.13c0.26,0.36 0.51,0.71 0.74,1.05c7.36,10.47 8.16,11.75 8.16,15.61c0,6.51 -5.3,11.81 -11.81,11.81c-3.15,0 -6.13,-1.23 -8.35,-3.46c-2.23,-2.22 -3.46,-5.2 -3.46,-8.35c0,-3.59 0.71,-4.97 6.76,-13.61c0.24,-0.34 0.25,-0.8 0.01,-1.14l-4.3,-6.33c-0.39,-0.58 -1.25,-0.59 -1.64,-0.01c-0.06,0.07 -0.11,0.15 -0.16,0.22c-7.74,11.03 -9.82,13.99 -9.82,20.87c0,5.6 2.18,10.87 6.15,14.82c3.95,3.96 9.22,6.15 14.82,6.15c11.56,0 20.97,-9.41 20.97,-20.97c0,-6.88 -2.08,-9.84 -9.82,-20.87z" fill="#ffffff" id="svg_3"/>
          <path d="m18.07,38.76c0.22,-0.34 0.22,-0.79 -0.01,-1.12c-0.26,-0.37 -0.51,-0.72 -0.74,-1.06c-7.36,-10.47 -8.16,-11.76 -8.16,-15.61c0,-6.51 5.3,-11.81 11.81,-11.81c3.15,0 6.12,1.23 8.35,3.46c2.23,2.22 3.46,5.19 3.46,8.35c0,2.54 -0.35,3.97 -2.7,7.65c-0.22,0.34 -0.21,0.78 0.01,1.11l4.6,6.76c0.27,0.41 0.87,0.41 1.15,0l0.65,-0.97c2.08,-3.1 3.31,-5.24 4.09,-7.13c0.05,-0.11 0.09,-0.21 0.13,-0.3c0.07,-0.18 0.14,-0.38 0.21,-0.56c0.73,-2.05 1.01,-4.04 1.01,-6.55c0,-5.6 -2.18,-10.87 -6.15,-14.82c-3.95,-3.98 -9.21,-6.16 -14.81,-6.16c-11.56,0 -20.97,9.41 -20.97,20.97c0,6.88 2.08,9.84 9.82,20.87c0.79,1.13 1.66,2.37 2.61,3.72c0.46,0.67 1.5,0.53 1.84,-0.21c0.9,-1.99 2.14,-4.09 3.8,-6.59z" fill="#ffffff" id="svg_4"/>
          <path d="m21.05,64.41c0,-6.19 1.71,-9.24 7.7,-17.84c1.18,-1.79 2.77,-4.08 4.95,-7.19c1.13,-1.6 2.39,-3.4 3.8,-5.44l-7.52,-5.23c-1.4,2.03 -2.66,3.82 -3.78,5.41c-7.74,11.03 -9.82,13.99 -9.82,20.87c0,5.08 1.81,9.88 5.1,13.69c-0.28,-1.39 -0.43,-2.82 -0.43,-4.27z" fill="#ffffff" id="svg_5"/>
          <circle cx="21" cy="21" fill="#ffffff" id="svg_6" r="5"/>
          <circle cx="37" cy="55" fill="#ffffff" id="svg_7" r="5"/>
         </g>
         <path d="m12.06,71.73c-4.68,5.2 8.52,39.96 9.15,13.27l-9.15,-13.27z" fill="#6877ff" id="svg_13" stroke="#6877ff" transform="rotate(30.0338 34.4348 30.305) matrix(-0.930817 -0.295967 0.288413 -0.955198 25.418 114.7)"/>
        </g>
    </g>

    <g id="frame9">
        <defs>
         <clipPath id="clip0_631_2925">
          <rect fill="white" height="75.97" id="svg_1" width="58.33"/>
         </clipPath>
        </defs>
        <g class="layer">
         <title>Layer 1</title>
         <g clip-path="url(#clip0_631_2925)" id="svg_2">
          <path d="m48.51,34.12c-0.79,-1.13 -1.66,-2.37 -2.61,-3.72c-0.46,-0.67 -1.51,-0.53 -1.84,0.21c-0.9,1.99 -2.15,4.09 -3.81,6.59c-0.23,0.34 -0.22,0.79 0.01,1.13c0.26,0.36 0.51,0.71 0.74,1.05c7.36,10.47 8.16,11.75 8.16,15.61c0,6.51 -5.3,11.81 -11.81,11.81c-3.15,0 -6.13,-1.23 -8.35,-3.46c-2.23,-2.22 -3.46,-5.2 -3.46,-8.35c0,-3.59 0.71,-4.97 6.76,-13.61c0.24,-0.34 0.25,-0.8 0.01,-1.14l-4.3,-6.33c-0.39,-0.58 -1.25,-0.59 -1.64,-0.01c-0.06,0.07 -0.11,0.15 -0.16,0.22c-7.74,11.03 -9.82,13.99 -9.82,20.87c0,5.6 2.18,10.87 6.15,14.82c3.95,3.96 9.22,6.15 14.82,6.15c11.56,0 20.97,-9.41 20.97,-20.97c0,-6.88 -2.08,-9.84 -9.82,-20.87z" fill="#ffffff" id="svg_3"/>
          <path d="m18.07,38.76c0.22,-0.34 0.22,-0.79 -0.01,-1.12c-0.26,-0.37 -0.51,-0.72 -0.74,-1.06c-7.36,-10.47 -8.16,-11.76 -8.16,-15.61c0,-6.51 5.3,-11.81 11.81,-11.81c3.15,0 6.12,1.23 8.35,3.46c2.23,2.22 3.46,5.19 3.46,8.35c0,2.54 -0.35,3.97 -2.7,7.65c-0.22,0.34 -0.21,0.78 0.01,1.11l4.6,6.76c0.27,0.41 0.87,0.41 1.15,0l0.65,-0.97c2.08,-3.1 3.31,-5.24 4.09,-7.13c0.05,-0.11 0.09,-0.21 0.13,-0.3c0.07,-0.18 0.14,-0.38 0.21,-0.56c0.73,-2.05 1.01,-4.04 1.01,-6.55c0,-5.6 -2.18,-10.87 -6.15,-14.82c-3.95,-3.98 -9.21,-6.16 -14.81,-6.16c-11.56,0 -20.97,9.41 -20.97,20.97c0,6.88 2.08,9.84 9.82,20.87c0.79,1.13 1.66,2.37 2.61,3.72c0.46,0.67 1.5,0.53 1.84,-0.21c0.9,-1.99 2.14,-4.09 3.8,-6.59z" fill="#ffffff" id="svg_4"/>
          <path d="m21.05,64.41c0,-6.19 1.71,-9.24 7.7,-17.84c1.18,-1.79 2.77,-4.08 4.95,-7.19c1.13,-1.6 2.39,-3.4 3.8,-5.44l-7.52,-5.23c-1.4,2.03 -2.66,3.82 -3.78,5.41c-7.74,11.03 -9.82,13.99 -9.82,20.87c0,5.08 1.81,9.88 5.1,13.69c-0.28,-1.39 -0.43,-2.82 -0.43,-4.27z" fill="#ffffff" id="svg_5"/>
          <circle cx="21" cy="21" fill="#ffffff" id="svg_6" r="5"/>
          <circle cx="37" cy="55" fill="#ffffff" id="svg_7" r="5"/>
         </g>
         <path d="m17.21,90.27c-4.68,5.2 8.52,39.96 9.15,13.27l-9.15,-13.27z" fill="#6877ff" id="svg_13" stroke="#6877ff" transform="rotate(-23.401 35.5135 13.6423) matrix(-0.893817 -0.230098 0.276948 -0.742612 26.3183 94.2067)"/>
        </g>
    </g>

    <g id="frame10">
        <defs>
         <clipPath id="clip0_631_2925">
          <rect fill="white" height="75.97" id="svg_1" width="58.33"/>
         </clipPath>
        </defs>
        <g class="layer">
         <title>Layer 1</title>
         <g clip-path="url(#clip0_631_2925)" id="svg_2">
          <path d="m48.51,34.12c-0.79,-1.13 -1.66,-2.37 -2.61,-3.72c-0.46,-0.67 -1.51,-0.53 -1.84,0.21c-0.9,1.99 -2.15,4.09 -3.81,6.59c-0.23,0.34 -0.22,0.79 0.01,1.13c0.26,0.36 0.51,0.71 0.74,1.05c7.36,10.47 8.16,11.75 8.16,15.61c0,6.51 -5.3,11.81 -11.81,11.81c-3.15,0 -6.13,-1.23 -8.35,-3.46c-2.23,-2.22 -3.46,-5.2 -3.46,-8.35c0,-3.59 0.71,-4.97 6.76,-13.61c0.24,-0.34 0.25,-0.8 0.01,-1.14l-4.3,-6.33c-0.39,-0.58 -1.25,-0.59 -1.64,-0.01c-0.06,0.07 -0.11,0.15 -0.16,0.22c-7.74,11.03 -9.82,13.99 -9.82,20.87c0,5.6 2.18,10.87 6.15,14.82c3.95,3.96 9.22,6.15 14.82,6.15c11.56,0 20.97,-9.41 20.97,-20.97c0,-6.88 -2.08,-9.84 -9.82,-20.87z" fill="#ffffff" id="svg_3"/>
          <path d="m18.07,38.76c0.22,-0.34 0.22,-0.79 -0.01,-1.12c-0.26,-0.37 -0.51,-0.72 -0.74,-1.06c-7.36,-10.47 -8.16,-11.76 -8.16,-15.61c0,-6.51 5.3,-11.81 11.81,-11.81c3.15,0 6.12,1.23 8.35,3.46c2.23,2.22 3.46,5.19 3.46,8.35c0,2.54 -0.35,3.97 -2.7,7.65c-0.22,0.34 -0.21,0.78 0.01,1.11l4.6,6.76c0.27,0.41 0.87,0.41 1.15,0l0.65,-0.97c2.08,-3.1 3.31,-5.24 4.09,-7.13c0.05,-0.11 0.09,-0.21 0.13,-0.3c0.07,-0.18 0.14,-0.38 0.21,-0.56c0.73,-2.05 1.01,-4.04 1.01,-6.55c0,-5.6 -2.18,-10.87 -6.15,-14.82c-3.95,-3.98 -9.21,-6.16 -14.81,-6.16c-11.56,0 -20.97,9.41 -20.97,20.97c0,6.88 2.08,9.84 9.82,20.87c0.79,1.13 1.66,2.37 2.61,3.72c0.46,0.67 1.5,0.53 1.84,-0.21c0.9,-1.99 2.14,-4.09 3.8,-6.59z" fill="#ffffff" id="svg_4"/>
          <path d="m21.05,64.41c0,-6.19 1.71,-9.24 7.7,-17.84c1.18,-1.79 2.77,-4.08 4.95,-7.19c1.13,-1.6 2.39,-3.4 3.8,-5.44l-7.52,-5.23c-1.4,2.03 -2.66,3.82 -3.78,5.41c-7.74,11.03 -9.82,13.99 -9.82,20.87c0,5.08 1.81,9.88 5.1,13.69c-0.28,-1.39 -0.43,-2.82 -0.43,-4.27z" fill="#ffffff" id="svg_5"/>
          <circle cx="21" cy="21" fill="#ffffff" id="svg_6" r="5"/>
          <circle cx="37" cy="55" fill="#ffffff" id="svg_7" r="5"/>
         </g>
         <path d="m28.97,96.61c-4.68,5.2 8.52,39.96 9.15,13.27l-9.15,-13.27z" fill="#6877ff" id="svg_13" stroke="#6877ff" transform="matrix(1 0 0 1 0 0) rotate(-72.6547 26.0135 5.64229) matrix(-0.919518 -0.241092 0.284912 -0.778095 25.5626 97.8257)"/>
        </g>
    </g>

    <g id="frame11">
        <defs>
         <clipPath id="clip0_631_2925">
          <rect fill="white" height="75.97" id="svg_1" width="58.33"/>
         </clipPath>
        </defs>
        <g class="layer">
         <title>Layer 1</title>
         <g clip-path="url(#clip0_631_2925)" id="svg_2">
          <path d="m48.51,34.12c-0.79,-1.13 -1.66,-2.37 -2.61,-3.72c-0.46,-0.67 -1.51,-0.53 -1.84,0.21c-0.9,1.99 -2.15,4.09 -3.81,6.59c-0.23,0.34 -0.22,0.79 0.01,1.13c0.26,0.36 0.51,0.71 0.74,1.05c7.36,10.47 8.16,11.75 8.16,15.61c0,6.51 -5.3,11.81 -11.81,11.81c-3.15,0 -6.13,-1.23 -8.35,-3.46c-2.23,-2.22 -3.46,-5.2 -3.46,-8.35c0,-3.59 0.71,-4.97 6.76,-13.61c0.24,-0.34 0.25,-0.8 0.01,-1.14l-4.3,-6.33c-0.39,-0.58 -1.25,-0.59 -1.64,-0.01c-0.06,0.07 -0.11,0.15 -0.16,0.22c-7.74,11.03 -9.82,13.99 -9.82,20.87c0,5.6 2.18,10.87 6.15,14.82c3.95,3.96 9.22,6.15 14.82,6.15c11.56,0 20.97,-9.41 20.97,-20.97c0,-6.88 -2.08,-9.84 -9.82,-20.87z" fill="#ffffff" id="svg_3"/>
          <path d="m18.07,38.76c0.22,-0.34 0.22,-0.79 -0.01,-1.12c-0.26,-0.37 -0.51,-0.72 -0.74,-1.06c-7.36,-10.47 -8.16,-11.76 -8.16,-15.61c0,-6.51 5.3,-11.81 11.81,-11.81c3.15,0 6.12,1.23 8.35,3.46c2.23,2.22 3.46,5.19 3.46,8.35c0,2.54 -0.35,3.97 -2.7,7.65c-0.22,0.34 -0.21,0.78 0.01,1.11l4.6,6.76c0.27,0.41 0.87,0.41 1.15,0l0.65,-0.97c2.08,-3.1 3.31,-5.24 4.09,-7.13c0.05,-0.11 0.09,-0.21 0.13,-0.3c0.07,-0.18 0.14,-0.38 0.21,-0.56c0.73,-2.05 1.01,-4.04 1.01,-6.55c0,-5.6 -2.18,-10.87 -6.15,-14.82c-3.95,-3.98 -9.21,-6.16 -14.81,-6.16c-11.56,0 -20.97,9.41 -20.97,20.97c0,6.88 2.08,9.84 9.82,20.87c0.79,1.13 1.66,2.37 2.61,3.72c0.46,0.67 1.5,0.53 1.84,-0.21c0.9,-1.99 2.14,-4.09 3.8,-6.59z" fill="#ffffff" id="svg_4"/>
          <path d="m21.05,64.41c0,-6.19 1.71,-9.24 7.7,-17.84c1.18,-1.79 2.77,-4.08 4.95,-7.19c1.13,-1.6 2.39,-3.4 3.8,-5.44l-7.52,-5.23c-1.4,2.03 -2.66,3.82 -3.78,5.41c-7.74,11.03 -9.82,13.99 -9.82,20.87c0,5.08 1.81,9.88 5.1,13.69c-0.28,-1.39 -0.43,-2.82 -0.43,-4.27z" fill="#ffffff" id="svg_5"/>
          <circle cx="21" cy="21" fill="#ffffff" id="svg_6" r="5"/>
          <circle cx="37" cy="55" fill="#ffffff" id="svg_7" r="5"/>
         </g>
         <path d="m22.4,9.06c-1.07,-6.79 -30.95,-14.09 -13.51,0.73l13.51,-0.73z" fill="#6877ff" id="svg_13" stroke="#6877ff" transform="rotate(-47.7554 12.9192 5.46872)"/>
        </g>
    </g>

    <g id="frame12">
        <defs>
         <clipPath id="clip0_631_2925">
          <rect fill="white" height="75.97" id="svg_1" width="58.33"/>
         </clipPath>
        </defs>
        <g class="layer">
         <title>Layer 1</title>
         <g clip-path="url(#clip0_631_2925)" id="svg_2">
          <path d="m48.51,34.12c-0.79,-1.13 -1.66,-2.37 -2.61,-3.72c-0.46,-0.67 -1.51,-0.53 -1.84,0.21c-0.9,1.99 -2.15,4.09 -3.81,6.59c-0.23,0.34 -0.22,0.79 0.01,1.13c0.26,0.36 0.51,0.71 0.74,1.05c7.36,10.47 8.16,11.75 8.16,15.61c0,6.51 -5.3,11.81 -11.81,11.81c-3.15,0 -6.13,-1.23 -8.35,-3.46c-2.23,-2.22 -3.46,-5.2 -3.46,-8.35c0,-3.59 0.71,-4.97 6.76,-13.61c0.24,-0.34 0.25,-0.8 0.01,-1.14l-4.3,-6.33c-0.39,-0.58 -1.25,-0.59 -1.64,-0.01c-0.06,0.07 -0.11,0.15 -0.16,0.22c-7.74,11.03 -9.82,13.99 -9.82,20.87c0,5.6 2.18,10.87 6.15,14.82c3.95,3.96 9.22,6.15 14.82,6.15c11.56,0 20.97,-9.41 20.97,-20.97c0,-6.88 -2.08,-9.84 -9.82,-20.87z" fill="#ffffff" id="svg_3"/>
          <path d="m18.07,38.76c0.22,-0.34 0.22,-0.79 -0.01,-1.12c-0.26,-0.37 -0.51,-0.72 -0.74,-1.06c-7.36,-10.47 -8.16,-11.76 -8.16,-15.61c0,-6.51 5.3,-11.81 11.81,-11.81c3.15,0 6.12,1.23 8.35,3.46c2.23,2.22 3.46,5.19 3.46,8.35c0,2.54 -0.35,3.97 -2.7,7.65c-0.22,0.34 -0.21,0.78 0.01,1.11l4.6,6.76c0.27,0.41 0.87,0.41 1.15,0l0.65,-0.97c2.08,-3.1 3.31,-5.24 4.09,-7.13c0.05,-0.11 0.09,-0.21 0.13,-0.3c0.07,-0.18 0.14,-0.38 0.21,-0.56c0.73,-2.05 1.01,-4.04 1.01,-6.55c0,-5.6 -2.18,-10.87 -6.15,-14.82c-3.95,-3.98 -9.21,-6.16 -14.81,-6.16c-11.56,0 -20.97,9.41 -20.97,20.97c0,6.88 2.08,9.84 9.82,20.87c0.79,1.13 1.66,2.37 2.61,3.72c0.46,0.67 1.5,0.53 1.84,-0.21c0.9,-1.99 2.14,-4.09 3.8,-6.59z" fill="#ffffff" id="svg_4"/>
          <path d="m21.05,64.41c0,-6.19 1.71,-9.24 7.7,-17.84c1.18,-1.79 2.77,-4.08 4.95,-7.19c1.13,-1.6 2.39,-3.4 3.8,-5.44l-7.52,-5.23c-1.4,2.03 -2.66,3.82 -3.78,5.41c-7.74,11.03 -9.82,13.99 -9.82,20.87c0,5.08 1.81,9.88 5.1,13.69c-0.28,-1.39 -0.43,-2.82 -0.43,-4.27z" fill="#ffffff" id="svg_5"/>
          <circle cx="21" cy="21" fill="#ffffff" id="svg_6" r="5"/>
          <circle cx="37" cy="55" fill="#ffffff" id="svg_7" r="5"/>
         </g>
         <path d="m4.28,30.56c4.09,3.93 20.46,9.84 4.09,-5.72c-16.37,-15.56 -8.18,1.79 -4.09,5.72z" fill="#6877ff" id="svg_16" stroke="#6877ff" transform="rotate(20.4911 7.04101 26.7396)"/>
        </g>
    </g>

    <g id="frame13">
        <defs>
         <clipPath id="clip0_631_2925">
          <rect fill="white" height="75.97" id="svg_1" width="58.33"/>
         </clipPath>
        </defs>
        <g class="layer">
         <title>Layer 1</title>
         <g clip-path="url(#clip0_631_2925)" id="svg_2">
          <path d="m48.51,34.12c-0.79,-1.13 -1.66,-2.37 -2.61,-3.72c-0.46,-0.67 -1.51,-0.53 -1.84,0.21c-0.9,1.99 -2.15,4.09 -3.81,6.59c-0.23,0.34 -0.22,0.79 0.01,1.13c0.26,0.36 0.51,0.71 0.74,1.05c7.36,10.47 8.16,11.75 8.16,15.61c0,6.51 -5.3,11.81 -11.81,11.81c-3.15,0 -6.13,-1.23 -8.35,-3.46c-2.23,-2.22 -3.46,-5.2 -3.46,-8.35c0,-3.59 0.71,-4.97 6.76,-13.61c0.24,-0.34 0.25,-0.8 0.01,-1.14l-4.3,-6.33c-0.39,-0.58 -1.25,-0.59 -1.64,-0.01c-0.06,0.07 -0.11,0.15 -0.16,0.22c-7.74,11.03 -9.82,13.99 -9.82,20.87c0,5.6 2.18,10.87 6.15,14.82c3.95,3.96 9.22,6.15 14.82,6.15c11.56,0 20.97,-9.41 20.97,-20.97c0,-6.88 -2.08,-9.84 -9.82,-20.87z" fill="#ffffff" id="svg_3"/>
          <path d="m18.07,38.76c0.22,-0.34 0.22,-0.79 -0.01,-1.12c-0.26,-0.37 -0.51,-0.72 -0.74,-1.06c-7.36,-10.47 -8.16,-11.76 -8.16,-15.61c0,-6.51 5.3,-11.81 11.81,-11.81c3.15,0 6.12,1.23 8.35,3.46c2.23,2.22 3.46,5.19 3.46,8.35c0,2.54 -0.35,3.97 -2.7,7.65c-0.22,0.34 -0.21,0.78 0.01,1.11l4.6,6.76c0.27,0.41 0.87,0.41 1.15,0l0.65,-0.97c2.08,-3.1 3.31,-5.24 4.09,-7.13c0.05,-0.11 0.09,-0.21 0.13,-0.3c0.07,-0.18 0.14,-0.38 0.21,-0.56c0.73,-2.05 1.01,-4.04 1.01,-6.55c0,-5.6 -2.18,-10.87 -6.15,-14.82c-3.95,-3.98 -9.21,-6.16 -14.81,-6.16c-11.56,0 -20.97,9.41 -20.97,20.97c0,6.88 2.08,9.84 9.82,20.87c0.79,1.13 1.66,2.37 2.61,3.72c0.46,0.67 1.5,0.53 1.84,-0.21c0.9,-1.99 2.14,-4.09 3.8,-6.59z" fill="#ffffff" id="svg_4"/>
          <path d="m21.05,64.41c0,-6.19 1.71,-9.24 7.7,-17.84c1.18,-1.79 2.77,-4.08 4.95,-7.19c1.13,-1.6 2.39,-3.4 3.8,-5.44l-7.52,-5.23c-1.4,2.03 -2.66,3.82 -3.78,5.41c-7.74,11.03 -9.82,13.99 -9.82,20.87c0,5.08 1.81,9.88 5.1,13.69c-0.28,-1.39 -0.43,-2.82 -0.43,-4.27z" fill="#ffffff" id="svg_5"/>
          <circle cx="21" cy="21" fill="#ffffff" id="svg_6" r="5"/>
          <circle cx="37" cy="55" fill="#ffffff" id="svg_7" r="5"/>
         </g>
         <path d="m29.65,31.36c5.81,-5.8 29.04,-14.5 5.81,8.44c-23.23,22.94 -11.62,-2.64 -5.81,-8.44z" fill="#6877ff" id="svg_16" stroke="#6877ff" transform="rotate(176.024 8.82889 34.3744) matrix(0.33652 -0.525601 0.759732 0.232812 -30.5783 43.4058)"/>
        </g>
    </g>
</svg>