<svg width="157" height="51" viewBox="0 0 157 51" fill="none" xmlns="http://www.w3.org/2000/svg">
<g clip-path="url(#clip0_1690_3439)">
<path d="M32.1238 22.8803C31.552 22.0649 30.9215 21.1657 30.2323 20.1793C29.9993 19.8459 29.481 19.9133 29.3208 20.2871C28.7123 21.7068 27.8364 23.1871 26.6337 24.992C26.5198 25.1629 26.5208 25.3865 26.6386 25.5548C26.8269 25.8236 27.0123 26.085 27.1866 26.339C32.0235 33.223 32.552 34.0659 32.552 36.6014C32.552 40.883 29.0665 44.3684 24.7849 44.3684C22.7111 44.3684 20.7576 43.5589 19.2925 42.0938C17.8274 40.6287 17.0179 38.6753 17.0179 36.6014C17.0179 34.2251 17.4907 33.3255 21.5271 27.5618C21.6462 27.3917 21.6505 27.1621 21.5338 26.9904L18.5148 22.5485C18.3184 22.2595 17.8933 22.256 17.6935 22.5427C17.6141 22.6566 17.5359 22.7694 17.4595 22.8803C12.3684 30.1322 11.0037 32.079 11.0037 36.6014C11.0037 40.2809 12.4353 43.7463 15.0444 46.3486C17.6468 48.951 21.1122 50.3894 24.7916 50.3894C32.3914 50.3894 38.5796 44.2012 38.5796 36.6014C38.5796 32.079 37.2149 30.1322 32.1238 22.8803Z" fill="#5C76FF"/>
<path d="M12.1664 25.8394C12.2797 25.6686 12.2786 25.4454 12.1609 25.2775C11.9725 25.0084 11.7869 24.7468 11.6125 24.4926C6.77565 17.6087 6.24715 16.7657 6.24715 14.2302C6.24715 9.94868 9.73261 6.46321 14.0142 6.46321C16.0881 6.46321 18.0415 7.2727 19.5066 8.73779C20.9717 10.2029 21.7812 12.1564 21.7812 14.2302C21.7812 15.921 21.5447 16.8647 19.9488 19.3492C19.8399 19.5187 19.8413 19.7375 19.9545 19.9042L23.035 24.4372C23.2165 24.7044 23.611 24.7047 23.7949 24.4391V24.4391L24.223 23.7969C25.5878 21.7631 26.3973 20.3515 26.9124 19.1072C26.9392 19.0403 26.9659 18.9734 26.9927 18.9132C27.0395 18.7928 27.0863 18.6657 27.1332 18.5453C27.6148 17.1939 27.7955 15.8893 27.7955 14.2369C27.7955 10.5575 26.3638 7.09207 23.7547 4.48968C21.159 1.87391 17.7003 0.44226 14.0142 0.442261C6.4144 0.442261 0.226196 6.63046 0.226197 14.2302C0.226197 18.7526 1.59095 20.6994 6.68199 27.9513C7.25384 28.7667 7.88436 29.666 8.57355 30.6523C8.80651 30.9857 9.32478 30.9184 9.48499 30.5445C10.0934 29.1247 10.9685 27.6443 12.1664 25.8394Z" fill="#00AF8D"/>
<path d="M14.0676 42.7963C14.0676 38.7221 15.1915 36.7218 19.1319 31.0621C19.908 29.8847 20.9516 28.3795 22.3832 26.339C23.1258 25.282 23.9554 24.0979 24.8853 22.7599L19.9414 19.3213C19.0182 20.6526 18.1886 21.83 17.4527 22.8803C12.3617 30.1322 10.9969 32.079 10.9969 36.6014C10.9969 39.9397 12.1878 43.0974 14.3486 45.5994C14.168 44.6896 14.0676 43.7463 14.0676 42.7963Z" fill="#00AF8D"/>
<ellipse cx="14.0347" cy="14.2507" rx="3.28773" ry="3.28773" fill="#00AF8D"/>
<ellipse cx="24.5554" cy="36.6073" rx="3.28773" ry="3.28773" fill="#5C76FF"/>
</g>
<path d="M61.4057 16.881C59.9245 16.881 58.5823 17.2303 57.384 17.932C56.1836 18.6182 55.2342 19.6208 54.5354 20.933C53.8338 22.2337 53.4875 23.7916 53.4875 25.5987C53.4875 27.4217 53.8251 28.9875 54.5097 30.2882L54.5102 30.2891C55.1932 31.5698 56.1356 32.5479 57.3368 33.2171C58.535 33.8847 59.8846 34.2165 61.3807 34.2165C62.5186 34.2165 63.5522 34.0297 64.4786 33.6523L64.4802 33.6516C65.4138 33.2612 66.1703 32.7819 66.7425 32.2098L66.8002 32.152L66.8002 24.6769L60.7087 24.6769L60.7087 27.4451L63.8071 27.4451L63.8071 30.6789C63.5754 30.8644 63.2824 31.0164 62.9232 31.1317C62.5264 31.2425 62.1041 31.2984 61.6556 31.2984C60.0692 31.2984 58.8906 30.791 58.0864 29.7979C57.2737 28.7777 56.8555 27.3607 56.8555 25.5238C56.8555 23.7222 57.2893 22.3316 58.1334 21.3282C58.9938 20.3085 60.112 19.7992 61.5057 19.7992C62.2488 19.7992 62.8455 19.9368 63.3073 20.1984L63.3142 20.202C63.8138 20.4598 64.2647 20.7819 64.6673 21.1685L64.8206 21.3156L66.6177 19.1417L66.4948 19.0149C65.9607 18.4636 65.2762 17.9771 64.446 17.5533C63.6109 17.1015 62.5945 16.881 61.4057 16.881Z" fill="#F7F7F7"/>
<path d="M81.8738 16.881C80.7819 16.881 79.8017 17.0943 78.9379 17.5261C78.0938 17.9396 77.4175 18.5108 76.914 19.24L76.9134 19.2408C76.4235 19.9581 76.1794 20.7719 76.1794 21.6758C76.1794 22.5013 76.3429 23.2191 76.6792 23.821L76.6814 23.8247C77.0273 24.4128 77.4615 24.8998 77.9841 25.2831L77.9866 25.2849C78.5131 25.6585 79.0495 25.9652 79.5959 26.2042L79.5965 26.2045L81.8456 27.1791C82.5725 27.493 83.1618 27.7964 83.6161 28.0885L83.6188 28.0901C84.0315 28.3463 84.2502 28.766 84.2502 29.3967C84.2502 29.9714 84.0347 30.4218 83.6002 30.7664C83.1659 31.1108 82.5091 31.2984 81.5989 31.2984C80.88 31.2984 80.1581 31.1389 79.4319 30.8163C78.7014 30.4753 78.0533 30.0375 77.4865 29.5031L77.3363 29.3615L75.3819 31.6321L75.5141 31.7615C76.3153 32.5456 77.2363 33.1511 78.2759 33.5771L78.2769 33.5776C79.3328 34.0033 80.4239 34.2165 81.549 34.2165C82.8042 34.2165 83.8855 33.9961 84.7855 33.5461L84.7869 33.5454C85.6966 33.0819 86.3998 32.4681 86.8877 31.7015C87.3746 30.9363 87.6181 30.0916 87.6181 29.1718C87.6181 27.9555 87.3007 26.9779 86.642 26.2652C86.0042 25.5588 85.1887 24.9939 84.2007 24.568L81.9745 23.6425L81.9732 23.642C81.527 23.4602 81.1058 23.2785 80.7097 23.097C80.3301 22.9069 80.028 22.6888 79.7983 22.4451C79.6007 22.2028 79.4974 21.9006 79.4974 21.5259C79.4974 20.9864 79.7026 20.5813 80.1145 20.2872L80.1155 20.2864C80.5564 19.9671 81.1372 19.7992 81.8738 19.7992C82.5496 19.7992 83.155 19.9197 83.6932 20.1572L83.6951 20.158C84.2593 20.3998 84.7926 20.7308 85.2952 21.1523L85.4501 21.2823L87.1603 19.1373L87.0356 19.0127C86.3835 18.3605 85.6039 17.847 84.6994 17.4713C83.7926 17.078 82.8502 16.881 81.8738 16.881Z" fill="#F7F7F7"/>
<path d="M96.764 16.881C95.3637 16.881 94.0793 17.2314 92.9151 17.9332C91.7481 18.6198 90.8163 19.6225 90.1183 20.9334L90.1178 20.9343C89.4334 22.2347 89.0957 23.7921 89.0957 25.5987C89.0957 27.421 89.4246 28.9861 90.0919 30.2864L90.0933 30.2891C90.7752 31.5676 91.691 32.5454 92.8418 33.2153C93.9897 33.8835 95.2653 34.2165 96.664 34.2165C97.7391 34.2165 98.7177 34.0116 99.5965 33.5981L99.598 33.5974C100.49 33.1687 101.277 32.5603 101.96 31.775L102.071 31.6471L100.269 29.525L100.118 29.6869C99.6652 30.1719 99.1655 30.5667 98.6187 30.8726C98.085 31.1546 97.4685 31.2984 96.764 31.2984C95.4572 31.2984 94.4245 30.8004 93.6469 29.8009C92.8658 28.7804 92.4636 27.3623 92.4636 25.5238C92.4636 24.3115 92.652 23.2823 93.0214 22.4304C93.4088 21.5754 93.9285 20.9319 94.5764 20.4894L94.5773 20.4889C95.2426 20.0294 95.9945 19.7992 96.8389 19.7992C97.4434 19.7992 97.9772 19.9263 98.4451 20.1759L98.4521 20.1793C98.9465 20.4185 99.3941 20.7458 99.7951 21.1629L99.9484 21.3223L101.749 19.1438L101.63 19.0171C101.096 18.4484 100.419 17.9527 99.6036 17.528C98.7721 17.0948 97.8238 16.881 96.764 16.881Z" fill="#F7F7F7"/>
<path d="M73.0702 17.1808L69.7772 17.1808L69.7772 33.9167L73.0702 33.9167L73.0702 17.1808Z" fill="#F7F7F7"/>
<path fill-rule="evenodd" clip-rule="evenodd" d="M111.029 17.1808L107.344 17.1808L101.894 33.9167L105.262 33.9167L106.537 29.494L111.737 29.494L113.011 33.9167L116.48 33.9167L111.029 17.1808ZM108.578 22.4262C108.776 21.698 108.964 20.9698 109.142 20.2416C109.326 20.9556 109.511 21.6747 109.695 22.3991L109.696 22.4024C109.946 23.3199 110.205 24.2125 110.472 25.0803L110.472 25.0821L110.974 26.8257L107.325 26.8257L107.826 25.0821L107.827 25.0803C108.094 24.2122 108.344 23.3275 108.578 22.4262Z" fill="#F7F7F7"/>
<path fill-rule="evenodd" clip-rule="evenodd" d="M123.495 17.1808L117.775 17.1808L117.775 33.9167L121.068 33.9167L121.068 27.5201L123.253 27.5201L126.776 33.9167L130.481 33.9167L126.531 27.0039C127.444 26.6537 128.185 26.1092 128.748 25.3695C129.381 24.5599 129.689 23.5058 129.689 22.2255C129.689 20.9837 129.417 19.9793 128.85 19.2346C128.307 18.4825 127.556 17.9518 126.605 17.6405C125.682 17.3329 124.644 17.1808 123.495 17.1808ZM121.068 24.8268L121.068 19.8991L123.195 19.8991C124.293 19.8991 125.098 20.0887 125.635 20.4415L125.64 20.4449C126.163 20.764 126.446 21.336 126.446 22.2255C126.446 23.0946 126.164 23.7324 125.62 24.1708C125.085 24.5981 124.287 24.8268 123.195 24.8268L121.068 24.8268Z" fill="#F7F7F7"/>
<path d="M143.236 17.1808L130.498 17.1808L130.498 20.0241L135.22 20.0241L135.22 33.9167L138.513 33.9167L138.513 20.0241L143.236 20.0241L143.236 17.1808Z" fill="#F7F7F7"/>
<path fill-rule="evenodd" clip-rule="evenodd" d="M151.249 17.1808L147.564 17.1808L142.114 33.9167L145.482 33.9167L146.757 29.494L151.957 29.494L153.231 33.9167L156.7 33.9167L151.249 17.1808ZM148.798 22.4258C148.996 21.6978 149.184 20.9697 149.362 20.2416C149.546 20.9556 149.731 21.6747 149.915 22.3991L149.916 22.4024C150.166 23.3199 150.425 24.2125 150.692 25.0803L150.692 25.0821L151.194 26.8257L147.545 26.8257L148.046 25.0821L148.047 25.0803C148.314 24.212 148.564 23.3272 148.798 22.4258Z" fill="#F7F7F7"/>
<defs>
<clipPath id="clip0_1690_3439">
<rect x="0.226196" y="0.442261" width="38.3535" height="49.9538" fill="white"/>
</clipPath>
</defs>
</svg>
